<?xml version="1.0" encoding="utf-8"?>
<!-- Generator: Adobe Illustrator 25.3.1, SVG Export Plug-In . SVG Version: 6.00 Build 0)  -->
<svg version="1.1" id="Layer_3" xmlns="http://www.w3.org/2000/svg" xmlns:xlink="http://www.w3.org/1999/xlink" x="0px" y="0px"
	 viewBox="0 0 24 24" style="enable-background:new 0 0 24 24;" xml:space="preserve">
<style type="text/css">
	.st0{fill:#454545;}
</style>
<g>
	<path class="st0" d="M20,2.2h-5c-1.1,0-2,0.9-2,2v0.3h3.5c1.1,0,2,0.9,2,2v11c0,1.1-0.9,2-2,2H13v0.3c0,1.1,0.9,2,2,2h5
		c1.1,0,2-0.9,2-2V4.2C22,3.1,21.1,2.2,20,2.2z"/>
	<path class="st0" d="M5.5,17.5v-11c0-1.1,0.9-2,2-2h3.7V4.2c0-1.1-0.9-2-2-2h-5c-1.1,0-2,0.9-2,2v15.7c0,1.1,0.9,2,2,2h5
		c1.1,0,2-0.9,2-2v-0.3H7.5C6.4,19.5,5.5,18.6,5.5,17.5z"/>
	<path class="st0" d="M6.5,7.5v9c0,1.1,0.9,2,2,2h7c1.1,0,2-0.9,2-2v-9c0-1.1-0.9-2-2-2h-7C7.4,5.5,6.5,6.4,6.5,7.5z"/>
</g>
</svg>
