<?xml version="1.0" encoding="utf-8"?>
<!-- Generator: Adobe Illustrator 25.3.1, SVG Export Plug-In . SVG Version: 6.00 Build 0)  -->
<svg version="1.1" id="Layer_3" xmlns="http://www.w3.org/2000/svg" xmlns:xlink="http://www.w3.org/1999/xlink" x="0px" y="0px"
	 viewBox="0 0 24 24" style="enable-background:new 0 0 24 24;" xml:space="preserve">
<style type="text/css">
	.st0{fill:#454545;}
</style>
<g>
	<path class="st0" d="M5.4,17.5v-11c0-1.1,0.9-2,2-2h3.7V4.2c0-1.1-0.9-2-2-2h-5c-1.1,0-2,0.9-2,2v15.7c0,1.1,0.9,2,2,2h5
		c1.1,0,2-0.9,2-2v-0.3H7.4C6.3,19.5,5.4,18.6,5.4,17.5z"/>
	<path class="st0" d="M19.9,2.2h-5c-1.1,0-2,0.9-2,2v0.3h3.5c1.1,0,2,0.9,2,2v11c0,1.1-0.9,2-2,2h-3.5v0.3c0,1.1,0.9,2,2,2h5
		c1.1,0,2-0.9,2-2V4.2C21.9,3.1,21,2.2,19.9,2.2z"/>
	<path class="st0" d="M6.4,7.5v9c0,1.1,0.9,2,2,2h7c1.1,0,2-0.9,2-2v-9c0-1.1-0.9-2-2-2h-7C7.3,5.5,6.4,6.4,6.4,7.5z M8.6,11.4
		c0-0.7,0.4-1.2,1-1.4V8.8c0-0.8,0.7-1.5,1.5-1.5h1.7c0.8,0,1.5,0.7,1.5,1.5V10c0.6,0.2,1,0.8,1,1.4v3.8c0,0.8-0.7,1.5-1.5,1.5h-3.8
		c-0.8,0-1.5-0.7-1.5-1.5V11.4z"/>
	<path class="st0" d="M13.4,8.8c0-0.3-0.2-0.5-0.5-0.5h-1.7c-0.3,0-0.5,0.2-0.5,0.5v1.1h2.7V8.8z"/>
	<path class="st0" d="M10.1,15.7h3.8c0.3,0,0.5-0.2,0.5-0.5v-3.8c0-0.3-0.2-0.5-0.5-0.5h-3.8c-0.3,0-0.5,0.2-0.5,0.5v3.8
		C9.6,15.5,9.8,15.7,10.1,15.7z M11.5,13.1v-0.7c0-0.3,0.2-0.5,0.5-0.5s0.5,0.2,0.5,0.5v0.7c0.3,0.2,0.5,0.5,0.5,0.8
		c0,0.5-0.4,1-1,1c-0.5,0-1-0.4-1-1C11,13.5,11.2,13.2,11.5,13.1z"/>
</g>
</svg>
