<?xml version="1.0" encoding="utf-8"?>
<!-- Generator: Adobe Illustrator 25.2.1, SVG Export Plug-In . SVG Version: 6.00 Build 0)  -->
<svg version="1.1" id="Layer_1" xmlns="http://www.w3.org/2000/svg" xmlns:xlink="http://www.w3.org/1999/xlink" x="0px" y="0px"
	 viewBox="0 0 24 24" style="enable-background:new 0 0 24 24;" xml:space="preserve">
<style type="text/css">
	.st0{fill:#454545;}
</style>
<g>
	<defs>
		<rect id="SVGID_3_" x="-5.1" y="0" width="24" height="24"/>
	</defs>
	<clipPath id="SVGID_2_">
		<use xlink:href="#SVGID_3_"  style="overflow:visible;"/>
	</clipPath>
</g>
<g>
	<polygon class="st0" points="15.5,7 12,10.6 8.5,7.1 7.1,8.5 10.6,12 7,15.5 8.5,17 12,13.4 15.5,16.9 17,15.5 13.4,12 17,8.5 	"/>
	<path class="st0" d="M23.1,7.3c-0.6-1.4-1.5-2.7-2.6-3.8c-1.1-1.1-2.4-2-3.8-2.6C15.2,0.3,13.6,0,12,0c-1.6,0-3.2,0.3-4.7,0.9
		C5.9,1.5,4.6,2.4,3.5,3.5c-1.1,1.1-2,2.4-2.6,3.8C0.3,8.8,0,10.4,0,12s0.3,3.2,0.9,4.7c0.6,1.4,1.5,2.7,2.6,3.8
		c1.1,1.1,2.4,2,3.8,2.6C8.8,23.7,10.4,24,12,24c1.6,0,3.2-0.3,4.7-0.9c1.4-0.6,2.7-1.5,3.8-2.6c1.1-1.1,2-2.4,2.6-3.8
		c0.6-1.5,0.9-3.1,0.9-4.7S23.7,8.8,23.1,7.3z M12,22C6.5,22,2,17.5,2,12C2,6.5,6.5,2,12,2s10,4.5,10,10C22,17.5,17.5,22,12,22z"/>
	<path class="st0" d="M12,3C9.6,3,7.3,3.9,5.6,5.6C3.9,7.3,3,9.6,3,12c0,2.4,0.9,4.7,2.6,6.4c1.7,1.7,4,2.6,6.4,2.6s4.7-0.9,6.4-2.6
		c1.7-1.7,2.6-4,2.6-6.4c0-2.4-0.9-4.7-2.6-6.4C16.7,3.9,14.4,3,12,3z M12,20c-4.4,0-8-3.6-8-8c0-4.4,3.6-8,8-8c4.4,0,8,3.6,8,8
		C20,16.4,16.4,20,12,20z"/>
</g>
</svg>
