<?xml version="1.0" encoding="utf-8"?>
<!-- Generator: Adobe Illustrator 25.3.1, SVG Export Plug-In . SVG Version: 6.00 Build 0)  -->
<svg version="1.1" id="Layer_3" xmlns="http://www.w3.org/2000/svg" xmlns:xlink="http://www.w3.org/1999/xlink" x="0px" y="0px"
	 viewBox="0 0 24 24" style="enable-background:new 0 0 24 24;" xml:space="preserve">
<style type="text/css">
	.st0{fill:#454545;}
</style>
<g>
	<path class="st0" d="M5.3,3.7h-1c-0.7,0-1.2,0.7-1.4,1.7h3.8C6.5,4.5,5.9,3.7,5.3,3.7z"/>
	<path class="st0" d="M10.1,3.7h-1c-0.7,0-1.2,0.7-1.4,1.7h3.8C11.3,4.5,10.7,3.7,10.1,3.7z"/>
	<path class="st0" d="M14.9,3.7h-1c-0.7,0-1.2,0.7-1.4,1.7h3.8C16.1,4.5,15.5,3.7,14.9,3.7z"/>
	<path class="st0" d="M19.7,3.7h-1c-0.7,0-1.2,0.7-1.4,1.7h3.8C20.9,4.5,20.3,3.7,19.7,3.7z"/>
	<path class="st0" d="M4.2,20.2h1c0.7,0,1.2-0.7,1.4-1.7H2.8C3,19.5,3.5,20.2,4.2,20.2z"/>
	<path class="st0" d="M9,20.2h1c0.7,0,1.2-0.7,1.4-1.7H7.6C7.8,19.5,8.3,20.2,9,20.2z"/>
	<path class="st0" d="M13.8,20.2h1c0.7,0,1.2-0.7,1.4-1.7h-3.8C12.6,19.5,13.1,20.2,13.8,20.2z"/>
	<path class="st0" d="M18.6,20.2h1c0.7,0,1.2-0.7,1.4-1.7h-3.8C17.4,19.5,17.9,20.2,18.6,20.2z"/>
	<path class="st0" d="M13.9,10.9h-3.8c-0.3,0-0.5,0.2-0.5,0.5v3.8c0,0.3,0.2,0.5,0.5,0.5h3.8c0.3,0,0.5-0.2,0.5-0.5v-3.8
		C14.4,11.2,14.2,10.9,13.9,10.9z M12,14.8c-0.5,0-1-0.4-1-1c0-0.3,0.2-0.6,0.5-0.8v-0.7c0-0.3,0.2-0.5,0.5-0.5s0.5,0.2,0.5,0.5v0.7
		c0.3,0.2,0.5,0.5,0.5,0.8C13,14.4,12.5,14.8,12,14.8z"/>
	<path class="st0" d="M13.4,8.8c0-0.3-0.2-0.5-0.5-0.5h-1.7c-0.3,0-0.5,0.2-0.5,0.5v1.1h2.7V8.8z"/>
	<path class="st0" d="M21.1,6.5H3.2c-1.1,0-2,0.9-2,2v7c0,1.1,0.9,2,2,2h17.9c1.1,0,2-0.9,2-2v-7C23.1,7.4,22.2,6.5,21.1,6.5z
		 M15.4,15.2c0,0.8-0.7,1.5-1.5,1.5h-3.8c-0.8,0-1.5-0.7-1.5-1.5v-3.8c0-0.7,0.4-1.2,1-1.4V8.8c0-0.8,0.7-1.5,1.5-1.5h1.7
		c0.8,0,1.5,0.7,1.5,1.5V10c0.6,0.2,1,0.8,1,1.4V15.2z"/>
</g>
</svg>
