<?xml version="1.0" encoding="utf-8"?>
<!-- Generator: Adobe Illustrator 25.3.1, SVG Export Plug-In . SVG Version: 6.00 Build 0)  -->
<svg version="1.1" id="Layer_3" xmlns="http://www.w3.org/2000/svg" xmlns:xlink="http://www.w3.org/1999/xlink" x="0px" y="0px"
	 viewBox="0 0 24 24" style="enable-background:new 0 0 24 24;" xml:space="preserve">
<style type="text/css">
	.st0{fill:#454545;}
</style>
<g>
	<path class="st0" d="M6.6,21.5h1.7c1.2,0,2.2-0.8,2.6-2H4C4.4,20.6,5.4,21.5,6.6,21.5z"/>
	<path class="st0" d="M15.7,21.5h1.7c1.2,0,2.2-0.8,2.6-2h-6.9C13.5,20.6,14.5,21.5,15.7,21.5z"/>
	<path class="st0" d="M8.3,2.5H6.6c-1.2,0-2.2,0.8-2.6,2h6.9C10.5,3.4,9.5,2.5,8.3,2.5z"/>
	<path class="st0" d="M17.4,2.5h-1.7c-1.2,0-2.2,0.8-2.6,2H20C19.6,3.4,18.6,2.5,17.4,2.5z"/>
	<path class="st0" d="M20,5.5H4c-1.1,0-2,0.9-2,2v8.9c0,1.1,0.9,2,2,2H20c1.1,0,2-0.9,2-2V7.5C22,6.4,21.1,5.5,20,5.5z"/>
</g>
</svg>
