<?xml version="1.0" encoding="utf-8"?>
<!-- Generator: Adobe Illustrator 25.3.1, SVG Export Plug-In . SVG Version: 6.00 Build 0)  -->
<svg version="1.1" id="Layer_3" xmlns="http://www.w3.org/2000/svg" xmlns:xlink="http://www.w3.org/1999/xlink" x="0px" y="0px"
	 viewBox="0 0 24 24" style="enable-background:new 0 0 24 24;" xml:space="preserve">
<style type="text/css">
	.st0{fill:#454545;}
</style>
<g>
	<path class="st0" d="M6.3,3.5H4.9c-0.9,0-1.7,0.8-2,2h5.4C8,4.3,7.2,3.5,6.3,3.5z"/>
	<path class="st0" d="M12.6,3.5h-1.4c-0.9,0-1.7,0.8-2,2h5.4C14.4,4.3,13.6,3.5,12.6,3.5z"/>
	<path class="st0" d="M19,3.5h-1.4c-0.9,0-1.7,0.8-2,2H21C20.7,4.3,19.9,3.5,19,3.5z"/>
	<path class="st0" d="M5,20.5h1.4c0.9,0,1.7-0.8,2-2H3C3.3,19.6,4,20.5,5,20.5z"/>
	<path class="st0" d="M11.3,20.5h1.4c0.9,0,1.7-0.8,2-2H9.3C9.6,19.6,10.4,20.5,11.3,20.5z"/>
	<path class="st0" d="M17.7,20.5H19c0.9,0,1.7-0.8,2-2h-5.4C16,19.6,16.8,20.5,17.7,20.5z"/>
	<path class="st0" d="M13.4,8.8c0-0.3-0.2-0.5-0.5-0.5h-1.7c-0.3,0-0.5,0.2-0.5,0.5v1.1h2.7V8.8z"/>
	<path class="st0" d="M13.9,10.9h-3.8c-0.3,0-0.5,0.2-0.5,0.5v3.8c0,0.3,0.2,0.5,0.5,0.5h3.8c0.3,0,0.5-0.2,0.5-0.5v-3.8
		C14.4,11.2,14.2,10.9,13.9,10.9z M12,14.8c-0.5,0-1-0.4-1-1c0-0.3,0.2-0.6,0.5-0.8v-0.7c0-0.3,0.2-0.5,0.5-0.5s0.5,0.2,0.5,0.5v0.7
		c0.3,0.2,0.5,0.5,0.5,0.8C13,14.4,12.5,14.8,12,14.8z"/>
	<path class="st0" d="M20.9,6.5H3.1c-1.1,0-2,0.9-2,2v7c0,1.1,0.9,2,2,2h17.9c1.1,0,2-0.9,2-2v-7C22.9,7.4,22,6.5,20.9,6.5z
		 M15.4,15.2c0,0.8-0.7,1.5-1.5,1.5h-3.8c-0.8,0-1.5-0.7-1.5-1.5v-3.8c0-0.7,0.4-1.2,1-1.4V8.8c0-0.8,0.7-1.5,1.5-1.5h1.7
		c0.8,0,1.5,0.7,1.5,1.5V10c0.6,0.2,1,0.8,1,1.4V15.2z"/>
</g>
</svg>
