<?xml version="1.0" encoding="utf-8"?>
<!-- Generator: Adobe Illustrator 25.3.1, SVG Export Plug-In . SVG Version: 6.00 Build 0)  -->
<svg version="1.1" id="Layer_3" xmlns="http://www.w3.org/2000/svg" xmlns:xlink="http://www.w3.org/1999/xlink" x="0px" y="0px"
	 viewBox="0 0 24 24" style="enable-background:new 0 0 24 24;" xml:space="preserve">
<style type="text/css">
	.st0{fill:#454545;}
</style>
<g>
	<path class="st0" d="M19.5,8.7v6.9c1.2-0.4,2-1.4,2-2.6v-1.7C21.5,10,20.6,9,19.5,8.7z"/>
	<path class="st0" d="M2.5,11.2V13c0,1.2,0.8,2.2,2,2.6V8.7C3.4,9,2.5,10,2.5,11.2z"/>
	<path class="st0" d="M12.9,1h-1.7C9.9,1,8.9,1.8,8.5,3h6.9C15.1,1.8,14.1,1,12.9,1z"/>
	<path class="st0" d="M11.1,23h1.7c1.2,0,2.2-0.8,2.6-2H8.5C8.9,22.2,9.9,23,11.1,23z"/>
	<path class="st0" d="M16.4,4H7.5c-1.1,0-2,0.9-2,2V18c0,1.1,0.9,2,2,2h8.9c1.1,0,2-0.9,2-2V6C18.4,4.9,17.5,4,16.4,4z"/>
</g>
</svg>
