<?xml version="1.0" encoding="utf-8"?>
<!-- Generator: Adobe Illustrator 25.3.1, SVG Export Plug-In . SVG Version: 6.00 Build 0)  -->
<svg version="1.1" id="Layer_3" xmlns="http://www.w3.org/2000/svg" xmlns:xlink="http://www.w3.org/1999/xlink" x="0px" y="0px"
	 viewBox="0 0 24 24" style="enable-background:new 0 0 24 24;" xml:space="preserve">
<style type="text/css">
	.st0{fill:#454545;}
</style>
<g>
	<path class="st0" d="M5.3,3.8h-1c-0.7,0-1.2,0.7-1.4,1.7h3.8C6.5,4.5,5.9,3.8,5.3,3.8z"/>
	<path class="st0" d="M10.1,3.8h-1c-0.7,0-1.2,0.7-1.4,1.7h3.8C11.3,4.5,10.7,3.8,10.1,3.8z"/>
	<path class="st0" d="M14.9,3.8h-1c-0.7,0-1.2,0.7-1.4,1.7h3.8C16.1,4.5,15.5,3.8,14.9,3.8z"/>
	<path class="st0" d="M19.7,3.8h-1c-0.7,0-1.2,0.7-1.4,1.7h3.8C20.9,4.5,20.3,3.8,19.7,3.8z"/>
	<path class="st0" d="M4.2,20.2h1c0.7,0,1.2-0.7,1.4-1.7H2.8C3,19.5,3.5,20.2,4.2,20.2z"/>
	<path class="st0" d="M9,20.2h1c0.7,0,1.2-0.7,1.4-1.7H7.6C7.8,19.5,8.3,20.2,9,20.2z"/>
	<path class="st0" d="M13.8,20.2h1c0.7,0,1.2-0.7,1.4-1.7h-3.8C12.6,19.5,13.1,20.2,13.8,20.2z"/>
	<path class="st0" d="M18.6,20.2h1c0.7,0,1.2-0.7,1.4-1.7h-3.8C17.4,19.5,17.9,20.2,18.6,20.2z"/>
	<path class="st0" d="M21.1,6.5H3.2c-1.1,0-2,0.9-2,2v7c0,1.1,0.9,2,2,2h17.9c1.1,0,2-0.9,2-2v-7C23.1,7.4,22.2,6.5,21.1,6.5z"/>
</g>
</svg>
