<?xml version="1.0" encoding="utf-8"?>
<!-- Generator: Adobe Illustrator 25.3.1, SVG Export Plug-In . SVG Version: 6.00 Build 0)  -->
<svg version="1.1" id="Layer_3" xmlns="http://www.w3.org/2000/svg" xmlns:xlink="http://www.w3.org/1999/xlink" x="0px" y="0px"
	 viewBox="0 0 24 24" style="enable-background:new 0 0 24 24;" xml:space="preserve">
<style type="text/css">
	.st0{fill:#454545;}
</style>
<g>
	<path class="st0" d="M4.7,4H3.9C3.4,4,3,4.7,2.9,5.6h2.9C5.6,4.7,5.2,4,4.7,4z"/>
	<path class="st0" d="M8.6,4H7.9C7.4,4,7,4.7,6.8,5.6h2.9C9.5,4.7,9.1,4,8.6,4z"/>
	<path class="st0" d="M12.5,4h-0.7c-0.5,0-0.9,0.6-1.1,1.5h2.9C13.4,4.7,13,4,12.5,4z"/>
	<path class="st0" d="M16.5,4h-0.7c-0.5,0-0.9,0.6-1.1,1.5h2.9C17.4,4.7,17,4,16.5,4z"/>
	<path class="st0" d="M20.4,4h-0.7c-0.5,0-0.9,0.6-1.1,1.5h2.9C21.3,4.7,20.9,4,20.4,4z"/>
	<path class="st0" d="M3.9,19.9h0.7c0.5,0,0.9-0.6,1.1-1.5H2.9C3,19.3,3.4,19.9,3.9,19.9z"/>
	<path class="st0" d="M7.9,19.9h0.7c0.5,0,0.9-0.6,1.1-1.5H6.8C7,19.3,7.4,19.9,7.9,19.9z"/>
	<path class="st0" d="M11.8,19.9h0.7c0.5,0,0.9-0.6,1.1-1.5h-2.9C10.9,19.3,11.3,19.9,11.8,19.9z"/>
	<path class="st0" d="M15.7,19.9h0.7c0.5,0,0.9-0.6,1.1-1.5h-2.9C14.8,19.3,15.2,19.9,15.7,19.9z"/>
	<path class="st0" d="M19.7,19.9h0.7c0.5,0,0.9-0.6,1.1-1.5h-2.9C18.7,19.3,19.2,19.9,19.7,19.9z"/>
	<path class="st0" d="M13.4,8.8c0-0.3-0.2-0.5-0.5-0.5h-1.7c-0.3,0-0.5,0.2-0.5,0.5v1.1h2.7V8.8z"/>
	<path class="st0" d="M13.9,10.9h-3.8c-0.3,0-0.5,0.2-0.5,0.5v3.8c0,0.3,0.2,0.5,0.5,0.5h3.8c0.3,0,0.5-0.2,0.5-0.5v-3.8
		C14.4,11.2,14.2,10.9,13.9,10.9z M12,14.8c-0.5,0-1-0.4-1-1c0-0.3,0.2-0.6,0.5-0.8v-0.7c0-0.3,0.2-0.5,0.5-0.5s0.5,0.2,0.5,0.5v0.7
		c0.3,0.2,0.5,0.5,0.5,0.8C13,14.4,12.5,14.8,12,14.8z"/>
	<path class="st0" d="M21.2,6.5H2.8C1.8,6.5,1,7.3,1,8.3v7.3c0,1,0.8,1.8,1.8,1.8h18.4c1,0,1.8-0.8,1.8-1.8V8.3
		C23,7.3,22.2,6.5,21.2,6.5z M15.4,15.2c0,0.8-0.7,1.5-1.5,1.5h-3.8c-0.8,0-1.5-0.7-1.5-1.5v-3.8c0-0.7,0.4-1.2,1-1.4V8.8
		c0-0.8,0.7-1.5,1.5-1.5h1.7c0.8,0,1.5,0.7,1.5,1.5V10c0.6,0.2,1,0.8,1,1.4V15.2z"/>
</g>
</svg>
