<?xml version="1.0" encoding="utf-8"?>
<!-- Generator: Adobe Illustrator 25.3.1, SVG Export Plug-In . SVG Version: 6.00 Build 0)  -->
<svg version="1.1" id="Layer_3" xmlns="http://www.w3.org/2000/svg" xmlns:xlink="http://www.w3.org/1999/xlink" x="0px" y="0px"
	 viewBox="0 0 24 24" style="enable-background:new 0 0 24 24;" xml:space="preserve">
<style type="text/css">
	.st0{fill:#454545;}
</style>
<g>
	<path class="st0" d="M15.1,5.7H8.9C5.7,5.7,3,8.4,3,11.6v8.9h3.4v-9.2c0-1.2,1-2.2,2.2-2.2h6.7c1.2,0,2.2,1,2.2,2.2v9.2H21v-8.9
		C21,8.4,18.4,5.7,15.1,5.7z"/>
	<path class="st0" d="M15.6,3.5H8.4c-4.1,0-7.5,3.3-7.5,7.4v9.7h1v-9.7c0-3.5,2.9-6.4,6.4-6.4h7.3c3.5,0,6.4,2.9,6.4,6.4v9.7h1v-9.7
		C23.1,6.8,19.8,3.5,15.6,3.5z"/>
	<path class="st0" d="M14.6,10.1H9.4c-1.1,0-2,0.9-2,2v8.4h9.3v-8.4C16.6,11,15.7,10.1,14.6,10.1z"/>
</g>
</svg>
