<?xml version="1.0" encoding="utf-8"?>
<!-- Generator: Adobe Illustrator 25.3.1, SVG Export Plug-In . SVG Version: 6.00 Build 0)  -->
<svg version="1.1" id="Layer_3" xmlns="http://www.w3.org/2000/svg" xmlns:xlink="http://www.w3.org/1999/xlink" x="0px" y="0px"
	 viewBox="0 0 24 24" style="enable-background:new 0 0 24 24;" xml:space="preserve">
<style type="text/css">
	.st0{fill:#454545;}
</style>
<g>
	<circle class="st0" cx="12" cy="12" r="7"/>
	<path class="st0" d="M15.7,4.8V4c0-1.6-1.3-2.8-2.8-2.8h-1.7C9.6,1.2,8.3,2.5,8.3,4v0.8c1.1-0.6,2.4-0.9,3.7-0.9
		C13.3,3.9,14.6,4.2,15.7,4.8z"/>
	<path class="st0" d="M8.3,19.1v0.8c0,1.6,1.3,2.8,2.8,2.8h1.7c1.6,0,2.8-1.3,2.8-2.8v-0.8C14.6,19.7,13.3,20,12,20
		C10.7,20,9.4,19.7,8.3,19.1z"/>
	<path class="st0" d="M19.9,8.2h-0.8c0.6,1.1,0.9,2.4,0.9,3.7c0,1.3-0.3,2.6-0.9,3.7h0.8c1.6,0,2.8-1.3,2.8-2.8v-1.7
		C22.8,9.5,21.5,8.2,19.9,8.2z"/>
	<path class="st0" d="M4.1,8.2c-1.6,0-2.8,1.3-2.8,2.8v1.7c0,1.6,1.3,2.8,2.8,2.8h0.8C4.3,14.5,4,13.3,4,11.9c0-1.3,0.3-2.6,0.9-3.7
		H4.1z"/>
</g>
</svg>
