<?xml version="1.0" encoding="utf-8"?>
<!-- Generator: Adobe Illustrator 25.3.1, SVG Export Plug-In . SVG Version: 6.00 Build 0)  -->
<svg version="1.1" id="Layer_3" xmlns="http://www.w3.org/2000/svg" xmlns:xlink="http://www.w3.org/1999/xlink" x="0px" y="0px"
	 viewBox="0 0 24 24" style="enable-background:new 0 0 24 24;" xml:space="preserve">
<style type="text/css">
	.st0{fill:#454545;}
</style>
<g>
	<path class="st0" d="M15.7,6.7V6c0-1.6-1.3-2.8-2.8-2.8h-1.7C9.6,3.1,8.3,4.4,8.3,6v0.8c1.1-0.6,2.4-0.9,3.7-0.9
		C13.3,5.8,14.6,6.2,15.7,6.7z"/>
	<path class="st0" d="M13.4,10.1c0-0.3-0.2-0.5-0.5-0.5h-1.7c-0.3,0-0.5,0.2-0.5,0.5v1.1h2.7V10.1z"/>
	<path class="st0" d="M13.9,12.3h-3.8c-0.3,0-0.5,0.2-0.5,0.5v3.8c0,0.3,0.2,0.5,0.5,0.5h3.8c0.3,0,0.5-0.2,0.5-0.5v-3.8
		C14.4,12.5,14.2,12.3,13.9,12.3z M12,16.1c-0.5,0-1-0.4-1-1c0-0.3,0.2-0.6,0.5-0.8v-0.7c0-0.3,0.2-0.5,0.5-0.5s0.5,0.2,0.5,0.5v0.7
		c0.3,0.2,0.5,0.5,0.5,0.8C13,15.7,12.5,16.1,12,16.1z"/>
	<path class="st0" d="M12,6.9c-3.9,0-7,3.1-7,7s3.1,7,7,7c3.9,0,7-3.1,7-7S15.9,6.9,12,6.9z M15.4,16.5c0,0.8-0.7,1.5-1.5,1.5h-3.8
		c-0.8,0-1.5-0.7-1.5-1.5v-3.8c0-0.7,0.4-1.2,1-1.4v-1.2c0-0.8,0.7-1.5,1.5-1.5h1.7c0.8,0,1.5,0.7,1.5,1.5v1.2c0.6,0.2,1,0.8,1,1.4
		V16.5z"/>
</g>
</svg>
