<?xml version="1.0" encoding="utf-8"?>
<!-- Generator: Adobe Illustrator 25.3.1, SVG Export Plug-In . SVG Version: 6.00 Build 0)  -->
<svg version="1.1" id="Layer_3" xmlns="http://www.w3.org/2000/svg" xmlns:xlink="http://www.w3.org/1999/xlink" x="0px" y="0px"
	 viewBox="0 0 24 24" style="enable-background:new 0 0 24 24;" xml:space="preserve">
<style type="text/css">
	.st0{fill:#454545;}
</style>
<g>
	<path class="st0" d="M15.7,4.9V4.1c0-1.6-1.3-2.8-2.8-2.8h-1.7c-1.6,0-2.8,1.3-2.8,2.8v0.8C9.4,4.3,10.7,4,12,4
		C13.3,4,14.6,4.3,15.7,4.9z"/>
	<path class="st0" d="M8.3,19.1v0.8c0,1.6,1.3,2.8,2.8,2.8h1.7c1.6,0,2.8-1.3,2.8-2.8v-0.8C14.6,19.7,13.3,20,12,20
		C10.7,20,9.4,19.7,8.3,19.1z"/>
	<path class="st0" d="M19.9,8.3h-0.8C19.7,9.4,20,10.7,20,12c0,1.3-0.3,2.6-0.9,3.7h0.8c1.6,0,2.8-1.3,2.8-2.8v-1.7
		C22.8,9.6,21.5,8.3,19.9,8.3z"/>
	<path class="st0" d="M4.1,8.3c-1.6,0-2.8,1.3-2.8,2.8v1.7c0,1.6,1.3,2.8,2.8,2.8h0.8C4.3,14.6,4,13.3,4,12c0-1.3,0.3-2.6,0.9-3.7
		H4.1z"/>
	<path class="st0" d="M13.4,8.8c0-0.3-0.2-0.5-0.5-0.5h-1.7c-0.3,0-0.5,0.2-0.5,0.5v1.1h2.7V8.8z"/>
	<path class="st0" d="M13.9,10.9h-3.8c-0.3,0-0.5,0.2-0.5,0.5v3.8c0,0.3,0.2,0.5,0.5,0.5h3.8c0.3,0,0.5-0.2,0.5-0.5v-3.8
		C14.4,11.2,14.2,10.9,13.9,10.9z M12,14.8c-0.5,0-1-0.4-1-1c0-0.3,0.2-0.6,0.5-0.8v-0.7c0-0.3,0.2-0.5,0.5-0.5s0.5,0.2,0.5,0.5v0.7
		c0.3,0.2,0.5,0.5,0.5,0.8C13,14.4,12.5,14.8,12,14.8z"/>
	<path class="st0" d="M12,5c-3.9,0-7,3.1-7,7c0,3.9,3.1,7,7,7c3.9,0,7-3.1,7-7C19,8.2,15.9,5,12,5z M15.4,15.2
		c0,0.8-0.7,1.5-1.5,1.5h-3.8c-0.8,0-1.5-0.7-1.5-1.5v-3.8c0-0.7,0.4-1.2,1-1.4V8.8c0-0.8,0.7-1.5,1.5-1.5h1.7
		c0.8,0,1.5,0.7,1.5,1.5V10c0.6,0.2,1,0.8,1,1.4V15.2z"/>
</g>
</svg>
