<?xml version="1.0" encoding="utf-8"?>
<!-- Generator: Adobe Illustrator 25.3.1, SVG Export Plug-In . SVG Version: 6.00 Build 0)  -->
<svg version="1.1" id="Layer_3" xmlns="http://www.w3.org/2000/svg" xmlns:xlink="http://www.w3.org/1999/xlink" x="0px" y="0px"
	 viewBox="0 0 24 24" style="enable-background:new 0 0 24 24;" xml:space="preserve">
<style type="text/css">
	.st0{fill:#454545;}
</style>
<g>
	<circle class="st0" cx="12" cy="12" r="8"/>
	<path class="st0" d="M12,3c0.7,0,1.4,0.1,2,0.2c0-0.8-0.7-1.5-1.5-1.5h-0.9c-0.8,0-1.5,0.7-1.5,1.5C10.7,3.1,11.3,3,12,3z"/>
	<path class="st0" d="M12,21.1c0.7,0,1.4-0.1,2-0.2c0,0.8-0.7,1.5-1.5,1.5h-0.9c-0.8,0-1.5-0.7-1.5-1.5C10.7,21,11.3,21.1,12,21.1z"
		/>
	<path class="st0" d="M20.6,14.7c-0.2,0.7-0.5,1.3-0.8,1.9c0.8,0.2,1.7-0.2,1.9-1l0.3-0.9c0.2-0.8-0.2-1.6-1-1.9
		C21,13.4,20.8,14.1,20.6,14.7z"/>
	<path class="st0" d="M3.4,9.3c-0.2,0.7-0.3,1.3-0.4,2c-0.8-0.3-1.2-1.1-1-1.9l0.3-0.9c0.2-0.8,1.1-1.2,1.9-1
		C3.9,8.1,3.6,8.7,3.4,9.3z"/>
	<path class="st0" d="M17.3,4.7c0.6,0.4,1.1,0.9,1.5,1.4c0.5-0.7,0.3-1.7-0.3-2.1l-0.7-0.5c-0.7-0.5-1.6-0.3-2.1,0.3
		C16.2,4,16.8,4.3,17.3,4.7z"/>
	<path class="st0" d="M6.7,19.3c0.6,0.4,1.2,0.7,1.8,1C8,21,7,21.1,6.3,20.7l-0.7-0.5c-0.7-0.5-0.8-1.4-0.4-2.1
		C5.7,18.5,6.2,18.9,6.7,19.3z"/>
	<path class="st0" d="M6.6,4.8c0.6-0.4,1.2-0.7,1.8-1C7.9,3.1,6.9,3,6.3,3.5L5.5,4C4.8,4.5,4.7,5.5,5.2,6.2C5.6,5.7,6.1,5.2,6.6,4.8
		z"/>
	<path class="st0" d="M17.4,19.3c0.6-0.4,1.1-0.9,1.5-1.4c0.5,0.7,0.3,1.7-0.3,2.2l-0.7,0.6c-0.7,0.5-1.6,0.4-2.1-0.3
		C16.3,20,16.8,19.7,17.4,19.3z"/>
	<path class="st0" d="M20.5,9.1c0.2,0.7,0.4,1.3,0.4,2c0.8-0.3,1.2-1.2,0.9-2l-0.3-0.9c-0.3-0.8-1.1-1.2-1.9-1
		C20,7.8,20.3,8.4,20.5,9.1z"/>
	<path class="st0" d="M3.5,15c0.2,0.7,0.5,1.3,0.9,1.8c-0.8,0.2-1.7-0.2-2-1L2.1,15c-0.3-0.8,0.1-1.6,0.9-2
		C3.1,13.7,3.3,14.3,3.5,15z"/>
</g>
</svg>
