<?xml version="1.0" encoding="utf-8"?>
<!-- Generator: Adobe Illustrator 25.2.1, SVG Export Plug-In . SVG Version: 6.00 Build 0)  -->
<svg version="1.1" id="Layer_1" xmlns="http://www.w3.org/2000/svg" xmlns:xlink="http://www.w3.org/1999/xlink" x="0px" y="0px"
	 viewBox="0 0 24 24" style="enable-background:new 0 0 24 24;" xml:space="preserve">
<style type="text/css">
	.st0{fill:#454545;}
	.st1{clip-path:url(#SVGID_2_);fill:#454545;}
</style>
<g>
	<path class="st0" d="M19.47,9.11l0.94-0.35c-1.35-3.57-4.8-5.97-8.59-5.97v1C15.19,3.78,18.26,5.92,19.47,9.11z"/>
	<path class="st0" d="M11.5,10.24V9.63V8.78V6.25h-1v3.36c-0.02,0.02-0.1,0.09-0.24,0.09c-0.15,0-0.24-0.07-0.24-0.07V5.61h-1v4
		C9,9.63,8.92,9.69,8.77,9.69c-0.15,0-0.24-0.07-0.24-0.07V8.78V6.25h-1v2.53v0.85v0.62c0,0.85,0.62,1.57,1.46,1.79l-0.87,7.2
		c0,1.03,0.56,1.7,1.43,1.7c0.32,0,1.37-0.12,1.37-1.75l-0.72-7.19C10.96,11.73,11.5,11.05,11.5,10.24z M9.55,19.92
		c-0.12,0-0.43,0-0.44-0.64l0.45-3.67l0.36,3.61C9.92,19.92,9.69,19.92,9.55,19.92z M9.52,11.11c-0.36,0-0.66-0.18-0.83-0.43
		c0.03,0,0.06,0.02,0.09,0.02c0.28,0,0.53-0.1,0.74-0.23c0.21,0.14,0.46,0.23,0.74,0.23c0.03,0,0.06-0.01,0.09-0.02
		C10.18,10.93,9.88,11.11,9.52,11.11z"/>
	<path class="st0" d="M17.45,17.64l-1.9-1.84l-0.7,0.72l2.32,2.25c0.09,0.09,0.22,0.14,0.35,0.14c0.02,0,0.03,0,0.05,0
		c0.15-0.01,0.28-0.09,0.36-0.21l2.3-3.32l-0.82-0.57L17.45,17.64z"/>
	<path class="st0" d="M24.08,12c0-6.66-5.42-12.08-12.08-12.08S-0.08,5.34-0.08,12S5.34,24.08,12,24.08c1.14,0,2.23-0.17,3.27-0.46
		c0.7,0.26,1.45,0.41,2.24,0.41c3.56,0,6.46-2.9,6.46-6.46c0-0.77-0.14-1.5-0.39-2.18C23.9,14.3,24.08,13.17,24.08,12z M1.92,12
		C1.92,6.44,6.44,1.92,12,1.92S22.08,6.44,22.08,12c0,0.32-0.02,0.63-0.05,0.95c-1.17-1.14-2.76-1.85-4.52-1.85
		c-0.65,0-1.27,0.1-1.86,0.28V5.61c0-0.17-0.09-0.33-0.23-0.42s-0.32-0.11-0.48-0.04c-1.9,0.86-2.04,2.48-2.09,3.01
		c-0.1,1.2-0.01,4.67,0,4.81c0,0.03,0.01,0.06,0.02,0.09c-1.13,1.16-1.83,2.75-1.83,4.49c0,1.74,0.69,3.31,1.81,4.48
		c-0.28,0.03-0.57,0.04-0.86,0.04C6.44,22.08,1.92,17.56,1.92,12z M13.85,8.25c0.05-0.56,0.19-1.22,0.79-1.74v5.27
		c-0.28,0.14-0.55,0.3-0.81,0.47C13.82,11.16,13.78,9.08,13.85,8.25z M22.95,18.06c-0.24,2.61-2.32,4.7-4.94,4.94v-1.98h-1V23
		c-2.61-0.24-4.7-2.32-4.94-4.94h1.98v-1h-1.98c0.24-2.61,2.32-4.7,4.94-4.94v1.98h1v-1.98c2.61,0.24,4.7,2.32,4.94,4.94h-1.98v1
		H22.95z"/>
</g>
</svg>
