<?xml version="1.0" encoding="utf-8"?>
<!-- Generator: Adobe Illustrator 25.3.1, SVG Export Plug-In . SVG Version: 6.00 Build 0)  -->
<svg version="1.1" id="Layer_3" xmlns="http://www.w3.org/2000/svg" xmlns:xlink="http://www.w3.org/1999/xlink" x="0px" y="0px"
	 viewBox="0 0 24 24" style="enable-background:new 0 0 24 24;" xml:space="preserve">
<style type="text/css">
	.st0{fill:#454545;}
</style>
<g>
	<path class="st0" d="M12.9,3.8h-1.7c-1.2,0-2.2,0.8-2.6,2h6.9C15.1,4.6,14.1,3.8,12.9,3.8z"/>
	<g>
		<path class="st0" d="M13.9,12.7h-3.8c-0.3,0-0.5,0.2-0.5,0.5V17c0,0.3,0.2,0.5,0.5,0.5h3.8c0.3,0,0.5-0.2,0.5-0.5v-3.8
			C14.4,12.9,14.2,12.7,13.9,12.7z M12,16.6c-0.5,0-1-0.4-1-1c0-0.3,0.2-0.6,0.5-0.8v-0.7c0-0.3,0.2-0.5,0.5-0.5s0.5,0.2,0.5,0.5
			v0.7c0.3,0.2,0.5,0.5,0.5,0.8C13,16.2,12.5,16.6,12,16.6z"/>
		<path class="st0" d="M13.4,10.6c0-0.3-0.2-0.5-0.5-0.5h-1.7c-0.3,0-0.5,0.2-0.5,0.5v1.1h2.7V10.6z"/>
		<path class="st0" d="M16.5,7.3H7.5c-1.1,0-2,0.9-2,2v8.9c0,1.1,0.9,2,2,2h8.9c1.1,0,2-0.9,2-2V9.3C18.5,8.2,17.6,7.3,16.5,7.3z
			 M15.4,17c0,0.8-0.7,1.5-1.5,1.5h-3.8c-0.8,0-1.5-0.7-1.5-1.5v-3.8c0-0.7,0.4-1.2,1-1.4v-1.2c0-0.8,0.7-1.5,1.5-1.5h1.7
			c0.8,0,1.5,0.7,1.5,1.5v1.2c0.6,0.2,1,0.8,1,1.4V17z"/>
	</g>
</g>
</svg>
