<?xml version="1.0" encoding="utf-8"?>
<!-- Generator: Adobe Illustrator 25.3.1, SVG Export Plug-In . SVG Version: 6.00 Build 0)  -->
<svg version="1.1" id="Layer_3" xmlns="http://www.w3.org/2000/svg" xmlns:xlink="http://www.w3.org/1999/xlink" x="0px" y="0px"
	 viewBox="0 0 24 24" style="enable-background:new 0 0 24 24;" xml:space="preserve">
<style type="text/css">
	.st0{fill:#454545;}
</style>
<g>
	<path class="st0" d="M12.9,2.5h-1.7c-1.2,0-2.2,0.8-2.6,2h6.9C15.1,3.3,14.1,2.5,12.9,2.5z"/>
	<path class="st0" d="M11.1,21.5h1.7c1.2,0,2.2-0.8,2.6-2H8.5C8.9,20.7,9.9,21.5,11.1,21.5z"/>
	<path class="st0" d="M19.5,8.5v6.9c1.2-0.4,2-1.4,2-2.6v-1.7C21.5,9.9,20.7,8.9,19.5,8.5z"/>
	<path class="st0" d="M2.5,11.1v1.7c0,1.2,0.8,2.2,2,2.6V8.5C3.3,8.9,2.5,9.9,2.5,11.1z"/>
	<path class="st0" d="M13.9,10.9h-3.8c-0.3,0-0.5,0.2-0.5,0.5v3.8c0,0.3,0.2,0.5,0.5,0.5h3.8c0.3,0,0.5-0.2,0.5-0.5v-3.8
		C14.4,11.2,14.2,10.9,13.9,10.9z M12,14.8c-0.5,0-1-0.4-1-1c0-0.3,0.2-0.6,0.5-0.8v-0.7c0-0.3,0.2-0.5,0.5-0.5s0.5,0.2,0.5,0.5v0.7
		c0.3,0.2,0.5,0.5,0.5,0.8C13,14.4,12.5,14.8,12,14.8z"/>
	<path class="st0" d="M16.5,5.5H7.5c-1.1,0-2,0.9-2,2v8.9c0,1.1,0.9,2,2,2h8.9c1.1,0,2-0.9,2-2V7.5C18.5,6.4,17.6,5.5,16.5,5.5z
		 M15.4,15.2c0,0.8-0.7,1.5-1.5,1.5h-3.8c-0.8,0-1.5-0.7-1.5-1.5v-3.8c0-0.7,0.4-1.2,1-1.4V8.8c0-0.8,0.7-1.5,1.5-1.5h1.7
		c0.8,0,1.5,0.7,1.5,1.5V10c0.6,0.2,1,0.8,1,1.4V15.2z"/>
	<path class="st0" d="M13.4,8.8c0-0.3-0.2-0.5-0.5-0.5h-1.7c-0.3,0-0.5,0.2-0.5,0.5v1.1h2.7V8.8z"/>
</g>
</svg>
